<?xml version="1.0" encoding="utf-8"?>
<!-- Generator: Adobe Illustrator 16.0.3, SVG Export Plug-In . SVG Version: 6.00 Build 0)  -->
<!DOCTYPE svg PUBLIC "-//W3C//DTD SVG 1.1//EN" "http://www.w3.org/Graphics/SVG/1.1/DTD/svg11.dtd">
<svg version="1.1" id="Capa_1" xmlns="http://www.w3.org/2000/svg" xmlns:xlink="http://www.w3.org/1999/xlink" x="0px" y="0px"
	 width="600px" height="600px" viewBox="0 0 600 600" enable-background="new 0 0 600 600" xml:space="preserve">
<g>
	<path d="M405.188,257.056c0,0,3.612,179.518-3.055,200.426c0,0-2.001-19.094-5.334-26.426c0,0-11.855,27.334-21.928,39.334
		c0,0,2.596-29.334-2.738-36.668c0,0-3.333,12.002-8,18.668l-3.722-24l-1.63,13.332l-4.648-12.666c0,0-2-1.332-6.667,5.334
		l-5.333-11.334c0,0-8.668,11.334-5.334,20.666c0,0-16.771-18.666-14.386-42l36.368-125.163l23.813-29.503L405.188,257.056z"/>
	<path d="M195.406,381.334c0,0,44.085-41.02,50.383-61.184c6.299-20.163,76.625,33.895,76.625,33.895s-6.298,46.709-9.447,53.531
		c-3.148,6.822-27.815,30.441-34.113,39.361C272.556,455.859,221.647,484.727,195.406,381.334z"/>
	<path d="M233.805,264.991c0,0,3.856,75.194,5.784,75.837c1.929,0.641,22.494,10.924,22.494,10.924l7.712,37.275l66.195,28.92
		c0,0,19.923,1.928,24.422,0s28.277-44.986,30.849-50.771c2.57-5.783-3.214-20.35,0-25.277c3.213-4.928,12.854-13.281,12.854-13.281
		s5.142-1.928-7.069-52.058c0,0-20.776-75.836-77.548-80.977C262.726,190.441,233.805,264.991,233.805,264.991z"/>
	<polygon fill="#FFFFFF" points="363.798,312.613 372.554,294.054 396.467,287.387 382.217,307.477 	"/>
	<polygon fill="#FFFFFF" points="335.36,313.62 313.591,292.096 269.728,284.38 293.883,306.323 	"/>
	<path d="M25.613,274.599h54.629l-6.622,7.7c0,0,87.737-3.5,91.049-3.85c3.311-0.351,4.966,12.249,4.966,12.249
		s75.322-17.499,83.6-16.099c8.276,1.4,80.288-2.8,80.288-2.8l-4.688,9.449c0,0,52.695-6.649,65.939-9.449
		c13.243-2.8-4.967-5.599-4.967-5.599s54.629,2.1,81.943,0c27.315-2.1-15.726-4.2-15.726-4.2l86.082-13.299l-15.728-4.2
		l56.285-20.999h-8.276l14.898-13.999c0,0-16.554,1.4-27.314,0l2.483-4.899c0,0-33.108,2.8-53.802,0l1.655-7
		c0,0-21.521-4.2-93.531,5.6l4.966-6.494l-30.626,2.995l-33.936-72.095l-61.665,9.799l-34.07-9.799l-35.294,91.288l-60.173-1.694
		l9.933,4.2L65.343,234.702l5.794,3.5c0,0-51.731,14.699-60.423,20.298l23.176-1.4l-23.176,13.299L25.613,274.599z"/>
	<g>
		<path fill="#FFFFFF" d="M397.045,276.56c0,0,0.162,0.592,0.466,1.701c0.296,1.111,0.756,2.736,1.275,4.819
			c1.059,4.162,2.525,10.119,4.027,17.331c0.754,3.606,1.543,7.521,2.225,11.701c0.347,2.09,0.682,4.243,0.968,6.465
			c0.287,2.229,0.514,4.5,0.521,6.957c-0.01,0.624-0.029,1.255-0.127,1.96c-0.059,0.363-0.111,0.72-0.279,1.19
			c-0.064,0.209-0.208,0.508-0.388,0.79c-0.136,0.183-0.254,0.33-0.445,0.512l-0.164,0.145c-0.42,0.381-0.904,0.783-1.392,1.186
			l-1.384,1.121c-1.827,1.483-3.645,2.958-5.308,4.545c-1.636,1.582-3.196,3.312-4.067,5.118c-0.452,0.901-0.598,1.772-0.605,2.558
			c0.038,0.619,0.082,1.229,0.159,1.742c0.054,0.521,0.165,1.138,0.249,1.711c0.744,4.715,1.914,9.773,1.311,15.033
			c-0.166,1.307-0.41,2.617-0.838,3.884c-0.217,0.633-0.431,1.264-0.741,1.859l-0.432,0.902c-0.03,0.057-0.01,0.031-0.081,0.156
			l-0.058,0.095l-0.115,0.189l-0.23,0.38c-1.226,2.021-2.437,4.018-3.627,5.981c-2.332,3.951-4.796,7.678-7.09,11.225
			c-2.285,3.553-4.481,6.892-6.522,9.955c-4.086,6.114-7.566,11.161-10.027,14.679c-1.223,1.764-2.222,3.125-2.887,4.063
			c-0.669,0.936-1.026,1.435-1.026,1.435s0.293-0.539,0.843-1.55c0.555-1.007,1.344-2.5,2.396-4.369
			c2.08-3.754,5.065-9.108,8.749-15.467c1.82-3.188,3.778-6.641,5.902-10.261c2.108-3.629,4.345-7.437,6.598-11.446
			c1.134-1.997,2.286-4.027,3.452-6.082c1.062-1.882,1.649-3.861,1.896-6.057c0.244-2.177,0.092-4.472-0.215-6.799
			c-0.306-2.334-0.793-4.695-1.204-7.173c-0.089-0.639-0.192-1.229-0.261-1.927c-0.089-0.7-0.124-1.313-0.156-1.914
			c-0.035-1.662,0.372-3.227,1.023-4.51c1.302-2.583,3.135-4.464,4.952-6.214c1.834-1.738,3.78-3.229,5.668-4.664l1.394-1.063
			c0.428-0.334,0.855-0.664,1.312-1.054l0.167-0.141c-0.094,0.073-0.121,0.107-0.163,0.179c-0.035,0.032-0.03,0.077-0.011,0.007
			c0.037-0.073,0.089-0.291,0.125-0.498c0.075-0.439,0.113-0.962,0.136-1.485c0.065-2.139-0.116-4.375-0.274-6.541
			c-0.175-2.174-0.404-4.31-0.648-6.388c-0.506-4.155-1.025-8.094-1.532-11.727C398.451,286.258,397.045,276.56,397.045,276.56z"/>
	</g>
	<path d="M236.798,268.39c0,0-2.752,162.667,18.957,196.667l3.155-15.334c0,0,4.725,16.002,19.306,22.668c0,0-1.248-27.334,0-40.668
		l11.915,25.76c0,0-4-22.93-5.333-38.678c-1.334-15.748-16.667-121.749-18-150.415H236.798z"/>
</g>
</svg>
